# xmcd
#
# Track frame offsets:
#  150
#  16520
#  31882
#  43597
#  58970
#  72800
#  90285
#  107415
#  125400
#  139710
#  158460
#  175002
#
# Disc length: 2565 seconds
#
# Revision: 2
# Processed by: cddbd v1.5.1PL2 Copyright (c) Steve Scherf et al.
# Submitted via: Collectorz.com_Music_Collector 6.9
#
DISCID=860a030c
DTITLE=Sherrie Austin - Love In The Real World [enhanced Cd]
DYEAR=1999
DGENRE=Country
TTITLE0=Never Been Kissed
TTITLE1=Good Love Comin' On
TTITLE2=Little Bird
TTITLE3=That's No Way To Break A Heart
TTITLE4=Sarah
TTITLE5=All The Love A Heart Can Hold
TTITLE6=Dreaming Out Loud
TTITLE7=Heart To Heart
TTITLE8=Love In The Real World
TTITLE9=Heart Hold On
TTITLE10=All That Matters
TTITLE11=Wish
EXTD=
EXTT0=
EXTT1=
EXTT2=
EXTT3=
EXTT4=
EXTT5=
EXTT6=
EXTT7=
EXTT8=
EXTT9=
EXTT10=
EXTT11=
PLAYORDER=
